HIERARCHY
ROOT Hips
{
	OFFSET 0.000000 89.005402 0.000000
	CHANNELS 6 Xposition Yposition Zposition Xrotation Yrotation Zrotation
	JOINT Spine
	{
		OFFSET 0.116900 10.681000 0.373400
		CHANNELS 3 Xrotation Yrotation Zrotation
		JOINT Spine1
		{
			OFFSET 0.000000 13.840401 0.053500
			CHANNELS 3 Xrotation Yrotation Zrotation
			JOINT Spine2
			{
				OFFSET 0.000000 14.712700 -0.366200
				CHANNELS 3 Xrotation Yrotation Zrotation
				JOINT Neck
				{
					OFFSET 0.000000 35.415497 -3.314200
					CHANNELS 3 Xrotation Yrotation Zrotation
					JOINT Head
					{
						OFFSET 0.000000 16.899200 1.218300
						CHANNELS 3 Xrotation Yrotation Zrotation
						JOINT HeadTop_End
						{
							OFFSET 0.000000 22.206207 2.192500
							CHANNELS 3 Xrotation Yrotation Zrotation
							End Site
							{
								OFFSET 0.000000 22.314178 0.000000
							}
						}
					}
				}
				JOINT LeftShoulder
				{
					OFFSET 12.896400 26.716293 -4.548400
					CHANNELS 3 Xrotation Yrotation Zrotation
					JOINT LeftArm
					{
						OFFSET 19.027000 -4.857010 -1.718400
						CHANNELS 3 Xrotation Yrotation Zrotation
						JOINT LeftForeArm
						{
							OFFSET 24.179897 0.000000 0.000000
							CHANNELS 3 Xrotation Yrotation Zrotation
							JOINT LeftHand
							{
								OFFSET 27.156403 0.000000 0.000000
								CHANNELS 3 Xrotation Yrotation Zrotation
								JOINT LeftHandIndex1
								{
									OFFSET 16.441200 0.000000 0.000000
									CHANNELS 3 Xrotation Yrotation Zrotation
									JOINT LeftHandIndex2
									{
										OFFSET 4.821899 0.000000 0.000000
										CHANNELS 3 Xrotation Yrotation Zrotation
										JOINT LeftHandIndex3
										{
											OFFSET 6.386497 0.000000 0.000000
											CHANNELS 3 Xrotation Yrotation Zrotation
											JOINT LeftHandIndex4
											{
												OFFSET 5.188988 0.000000 0.000000
												CHANNELS 3 Xrotation Yrotation Zrotation
												End Site
												{
													OFFSET -0.178703 5.185913 0.000177
												}
											}
										}
									}
								}
								JOINT LeftHandThumb1
								{
									OFFSET 6.534897 -5.032593 5.900300
									CHANNELS 3 Xrotation Yrotation Zrotation
									JOINT LeftHandThumb2
									{
										OFFSET 3.818176 -2.204422 2.204423
										CHANNELS 3 Xrotation Yrotation Zrotation
										JOINT LeftHandThumb3
										{
											OFFSET 3.252098 -1.877594 1.877601
											CHANNELS 3 Xrotation Yrotation Zrotation
											JOINT LeftHandThumb4
											{
												OFFSET 5.251778 -3.032120 3.032117
												CHANNELS 3 Xrotation Yrotation Zrotation
												End Site
												{
													OFFSET 0.000023 6.780014 0.000000
												}
											}
										}
									}
								}
							}
						}
					}
				}
				JOINT RightShoulder
				{
					OFFSET -12.896300 26.716293 -4.548400
					CHANNELS 3 Xrotation Yrotation Zrotation
					JOINT RightArm
					{
						OFFSET -19.027000 -4.857010 -1.718400
						CHANNELS 3 Xrotation Yrotation Zrotation
						JOINT RightForeArm
						{
							OFFSET -24.179897 0.000000 0.000000
							CHANNELS 3 Xrotation Yrotation Zrotation
							JOINT RightHand
							{
								OFFSET -27.156403 0.000000 0.000000
								CHANNELS 3 Xrotation Yrotation Zrotation
								JOINT RightHandThumb1
								{
									OFFSET -6.591202 -4.852203 5.988100
									CHANNELS 3 Xrotation Yrotation Zrotation
									JOINT RightHandThumb2
									{
										OFFSET -3.818176 -2.204422 2.204423
										CHANNELS 3 Xrotation Yrotation Zrotation
										JOINT RightHandThumb3
										{
											OFFSET -3.252098 -1.877594 1.877601
											CHANNELS 3 Xrotation Yrotation Zrotation
											JOINT RightHandThumb4
											{
												OFFSET -5.251778 -3.032120 3.032117
												CHANNELS 3 Xrotation Yrotation Zrotation
												End Site
												{
													OFFSET -0.000023 6.780014 0.000000
												}
											}
										}
									}
								}
								JOINT RightHandIndex1
								{
									OFFSET -16.029404 0.000000 0.000000
									CHANNELS 3 Xrotation Yrotation Zrotation
									JOINT RightHandIndex2
									{
										OFFSET -5.213303 0.000000 0.000000
										CHANNELS 3 Xrotation Yrotation Zrotation
										JOINT RightHandIndex3
										{
											OFFSET -6.386528 0.000000 0.000000
											CHANNELS 3 Xrotation Yrotation Zrotation
											JOINT RightHandIndex4
											{
												OFFSET -5.189026 0.000000 0.000000
												CHANNELS 3 Xrotation Yrotation Zrotation
												End Site
												{
													OFFSET 0.236702 5.183624 0.001972
												}
											}
										}
									}
								}
							}
						}
					}
				}
			}
		}
	}
	JOINT LeftUpLeg
	{
		OFFSET 14.073000 -7.904099 -1.463000
		CHANNELS 3 Xrotation Yrotation Zrotation
		JOINT LeftLeg
		{
			OFFSET -0.109806 -34.073280 4.093200
			CHANNELS 3 Xrotation Yrotation Zrotation
			JOINT LeftFoot
			{
				OFFSET 0.109806 -29.899420 -6.319000
				CHANNELS 3 Xrotation Yrotation Zrotation
				JOINT LeftToeBase
				{
					OFFSET 1.551100 -14.988700 20.535801
					CHANNELS 3 Xrotation Yrotation Zrotation
					JOINT LeftToe_End
					{
						OFFSET 0.221200 0.570800 13.248301
						CHANNELS 3 Xrotation Yrotation Zrotation
						End Site
						{
							OFFSET 0.000000 13.262435 0.000000
						}
					}
				}
			}
		}
	}
	JOINT RightUpLeg
	{
		OFFSET -13.839300 -7.904099 -1.463000
		CHANNELS 3 Xrotation Yrotation Zrotation
		JOINT RightLeg
		{
			OFFSET 0.109694 -34.073219 4.093300
			CHANNELS 3 Xrotation Yrotation Zrotation
			JOINT RightFoot
			{
				OFFSET -0.109694 -29.899384 -6.319200
				CHANNELS 3 Xrotation Yrotation Zrotation
				JOINT RightToeBase
				{
					OFFSET -1.551100 -14.988700 20.535801
					CHANNELS 3 Xrotation Yrotation Zrotation
					JOINT RightToe_End
					{
						OFFSET -0.221200 0.570900 13.248299
						CHANNELS 3 Xrotation Yrotation Zrotation
						End Site
						{
							OFFSET 0.000000 13.262440 0.000000
						}
					}
				}
			}
		}
	}
}
MOTION
Frames: 8
Frame Time: 0.033333
-0.081178 87.853241 1.462502 -0.013332 -3.214264 -0.663730 -0.121137 0.567442 -0.788489 -0.246093 1.063193 -0.313415 -0.252288 1.424029 1.773580 8.427593 0.576261 3.798095 -6.886652 -2.489484 -5.541842 -0.000000 -0.000000 0.000000 -4.812430 -10.638837 -12.165653 16.240428 -28.514313 -68.254709 -0.000001 -9.291263 0.000003 -11.492972 6.076636 -2.146663 0.722041 5.242873 -19.056469 0.227573 1.618602 -16.006205 0.038559 0.671827 -6.570519 -0.000001 0.000000 -0.000000 -2.869008 3.737981 9.040677 12.471510 25.898112 0.629995 -17.724351 -15.287014 3.804873 -0.000002 0.000001 0.000001 -2.186307 -0.070432 11.813289 19.535753 39.084921 62.976332 -0.000006 10.825499 0.000016 -14.441916 0.536924 0.113424 -6.843526 -4.635842 -19.349931 11.508248 -15.498042 5.714403 -16.634958 13.071251 -16.107357 0.000001 0.000001 -0.000000 1.030088 -6.398581 15.661853 0.131284 -1.099116 13.622161 0.025319 -0.485507 5.970860 -0.000001 -0.000000 -0.000003 -7.796118 10.905466 2.223392 13.534231 -3.251580 -0.170523 -5.570680 6.040616 0.399650 -0.004281 -0.000017 -0.000000 -0.000000 -0.000000 0.000000 -7.300930 0.614268 0.959316 11.235744 -5.056966 0.091036 -3.692911 2.751082 -0.074762 -0.005444 0.000001 0.000000 -0.000000 0.000000 0.000000 
-0.063501 87.525330 1.474969 -0.032867 -3.237535 -0.672550 -0.147322 0.566965 -0.781041 -0.246228 1.063111 -0.313253 -0.252428 1.424126 1.773693 8.454552 0.575664 3.801821 -6.947036 -2.484199 -5.608673 -0.000000 0.000000 0.000000 -4.763755 -10.585359 -12.108942 16.077319 -28.552764 -68.329294 -0.000006 -9.093541 0.000015 -11.394948 6.012280 -2.127091 0.722045 5.242891 -19.056694 0.227589 1.618590 -16.006224 0.038576 0.671824 -6.570565 -0.000000 -0.000001 0.000001 -2.869047 3.737896 9.040657 12.471493 25.898085 0.630023 -17.724288 -15.287044 3.804901 -0.000000 -0.000001 -0.000002 -2.147727 -0.107242 11.786147 19.457525 39.106501 63.013440 0.000001 10.724319 0.000001 -14.450184 0.532988 0.210415 -6.843537 -4.635840 -19.349866 11.508201 -15.498070 5.714324 -16.634970 13.071214 -16.107271 0.000000 -0.000000 -0.000001 1.030075 -6.398543 15.661906 0.131288 -1.099127 13.622064 0.025313 -0.485505 5.970810 0.000001 -0.000001 -0.000001 -9.815236 10.735103 2.568721 17.633125 -3.195899 -0.168503 -7.224254 6.089564 0.500199 -0.021289 -0.000012 -0.000000 0.000000 0.000001 -0.000000 -9.277386 0.472869 0.997034 15.050141 -4.678890 0.036835 -5.321867 2.548148 0.022349 0.018973 -0.000002 0.000000 -0.000000 0.000000 0.000000 
-0.049749 87.269356 1.495887 -0.057916 -3.249686 -0.679889 -0.178378 0.566485 -0.775387 -0.246364 1.063030 -0.313092 -0.252568 1.424223 1.773803 8.492605 0.571984 3.819921 -7.032043 -2.449980 -5.693674 -0.000000 -0.000000 0.000000 -4.710535 -10.604137 -12.149953 15.902871 -28.721024 -68.140317 -0.000005 -8.581815 -0.000001 -11.482917 5.830389 -1.999788 0.722059 5.242887 -19.056964 0.227580 1.618590 -16.006260 0.038571 0.671828 -6.570595 0.000002 -0.000000 -0.000002 -2.869096 3.737813 9.040625 12.471450 25.898050 0.630072 -17.724206 -15.287080 3.804916 -0.000001 0.000001 0.000001 -2.098287 -0.079579 11.738195 19.439678 39.309730 62.954742 0.000011 10.546884 -0.000024 -14.219947 0.739428 -0.021242 -6.843561 -4.635851 -19.349858 11.508163 -15.498099 5.714201 -16.634963 13.071175 -16.107184 -0.000000 -0.000000 0.000001 1.030076 -6.398509 15.661902 0.131282 -1.099130 13.622023 0.025322 -0.485499 5.970772 -0.000001 -0.000000 0.000002 -11.442534 10.598527 2.859136 20.937489 -3.134624 -0.188566 -8.476862 6.088511 0.576847 -0.030190 -0.000012 0.000001 0.000000 0.000000 0.000000 -10.860409 0.353520 1.023436 18.062780 -4.306746 -0.009481 -6.537256 2.325384 0.100122 0.021724 0.000008 -0.000000 0.000000 -0.000000 0.000000 
-0.036527 87.051384 1.510674 -0.087756 -3.259101 -0.681989 -0.189611 0.568751 -0.771744 -0.237297 1.062947 -0.312931 -0.243500 1.424322 1.773915 8.555223 0.570287 3.828774 -7.222026 -2.417101 -5.725169 -0.000000 0.000000 0.000000 -4.650164 -10.639766 -12.227373 15.819073 -29.386049 -67.531938 0.000001 -7.808311 0.000013 -11.337229 5.549028 -1.965733 0.722072 5.242908 -19.057201 0.227584 1.618604 -16.006256 0.038566 0.671830 -6.570602 -0.000000 0.000001 0.000001 -2.869134 3.737736 9.040599 12.471425 25.898025 0.630081 -17.724141 -15.287123 3.804980 -0.000001 0.000000 0.000000 -2.039899 0.017819 11.687529 19.811283 40.013400 62.404966 0.000003 10.338259 0.000004 -12.322672 1.491647 -0.503221 -6.843578 -4.635869 -19.349806 11.508111 -15.498128 5.714095 -16.634955 13.071134 -16.107060 -0.000001 0.000001 -0.000000 1.030060 -6.398477 15.661914 0.131286 -1.099111 13.621988 0.025322 -0.485510 5.970687 0.000002 0.000001 0.000001 -12.853723 10.478577 3.110721 23.792447 -3.067319 -0.218466 -9.499712 6.054297 0.636941 -0.053827 -0.000009 0.000001 -0.000000 -0.000000 0.000000 -12.247161 0.247814 1.042473 20.668161 -3.941532 -0.054455 -7.529252 2.086345 0.152717 0.024520 -0.000001 -0.000000 -0.000000 0.000000 0.000000 
-0.021545 87.031456 1.481528 -0.123598 -3.259699 -0.664513 -0.138309 0.598006 -0.773286 -0.223715 1.061787 -0.324162 -0.229751 1.421413 1.764419 8.581689 0.572809 3.817959 -7.479154 -2.434150 -5.702397 -0.000000 0.000000 -0.000000 -4.610678 -10.747131 -12.331567 15.764770 -30.506671 -66.380225 -0.000000 -6.902866 0.000001 -10.343889 5.520089 -2.641081 0.722064 5.242911 -19.057457 0.227585 1.618602 -16.006306 0.038578 0.671840 -6.570619 -0.000001 0.000001 0.000001 -2.869184 3.737666 9.040597 12.471389 25.898001 0.630126 -17.724059 -15.287145 3.805023 0.000002 -0.000000 0.000002 -1.996701 0.204444 11.599721 20.729740 41.328163 61.115891 0.000010 10.213739 -0.000016 -8.743435 2.512564 -0.743957 -6.843601 -4.635857 -19.349755 11.508066 -15.498153 5.714004 -16.634945 13.071090 -16.106969 -0.000001 0.000001 -0.000002 1.030058 -6.398446 15.661900 0.131269 -1.099113 13.621923 0.025323 -0.485500 5.970670 -0.000002 0.000000 -0.000001 -12.871009 10.447924 3.109405 23.868547 -2.987554 -0.266981 -9.522423 5.987969 0.654952 -0.103596 0.000007 -0.000001 -0.000000 0.000000 0.000000 -12.294919 0.201685 1.077312 20.792081 -3.673949 -0.123325 -7.574255 1.845894 0.069016 0.027326 0.000003 -0.000000 -0.000000 0.000000 0.000000 
-0.000973 87.014610 1.401151 -0.148955 -3.246331 -0.614598 -0.013620 0.645274 -0.779634 -0.205444 1.059986 -0.342161 -0.211204 1.416729 1.749238 8.543165 0.578278 3.793393 -7.760022 -2.445883 -5.619710 -0.000000 0.000000 0.000000 -4.596659 -10.937258 -12.451142 15.426192 -31.768665 -64.846759 -0.000002 -6.076166 0.000001 -8.795709 5.979632 -3.622488 0.722079 5.242904 -19.057703 0.227580 1.618594 -16.006343 0.038564 0.671842 -6.570665 -0.000002 0.000002 -0.000003 -2.869238 3.737584 9.040576 12.471393 25.897970 0.630125 -17.723984 -15.287184 3.805066 -0.000002 -0.000000 0.000000 -1.977066 0.481964 11.417876 22.132017 43.194400 59.155415 -0.000004 10.504564 -0.000004 -5.127298 3.060836 -1.048047 -6.843622 -4.635900 -19.349776 11.508035 -15.498171 5.713910 -16.634936 13.071065 -16.106863 -0.000001 -0.000002 -0.000002 1.030035 -6.398423 15.661876 0.131283 -1.099104 13.621884 0.025337 -0.485495 5.970606 0.000000 -0.000001 0.000003 -12.918912 10.421302 3.065363 23.891563 -2.917543 -0.321496 -9.470188 5.927984 0.692124 -0.134156 0.000001 0.000000 -0.000000 -0.000000 0.000000 -12.467774 0.223280 1.085970 20.998295 -3.458969 -0.232484 -7.491826 1.586249 0.087720 0.029584 0.000003 -0.000000 -0.000000 -0.000000 0.000000 
0.033505 87.014381 1.272252 -0.137605 -3.214759 -0.527794 0.138349 0.679148 -0.785478 -0.179625 1.058860 -0.364871 -0.185365 1.416871 1.726229 8.517481 0.589817 3.740517 -8.110039 -2.431992 -5.470783 0.000000 -0.000000 0.000000 -4.564578 -11.158376 -12.571202 16.562053 -32.631960 -63.232839 0.000004 -5.539973 0.000004 -7.100712 8.395510 -4.850309 0.722078 5.242914 -19.057954 0.227583 1.618597 -16.006342 0.038571 0.671839 -6.570699 -0.000000 -0.000001 0.000000 -2.869279 3.737500 9.040565 12.471353 25.897945 0.630148 -17.723902 -15.287225 3.805130 0.000003 0.000000 0.000002 -1.940170 0.774538 11.145609 23.756043 45.100986 56.473162 0.000009 11.304470 0.000009 -2.676592 2.825588 -0.369496 -6.843651 -4.635873 -19.349687 11.507998 -15.498211 5.713826 -16.634907 13.071033 -16.106785 -0.000002 0.000003 0.000003 1.030036 -6.398382 15.661909 0.131267 -1.099108 13.621836 0.025321 -0.485485 5.970545 0.000000 -0.000000 -0.000001 -12.985094 10.347961 2.923185 23.788722 -2.851728 -0.337487 -9.303415 5.940633 0.738959 -0.135304 0.000001 -0.000000 -0.000000 0.000001 -0.000000 -12.696181 0.287325 1.065910 21.146042 -3.281014 -0.370795 -7.339646 1.316253 0.127804 0.030256 0.000004 0.000000 -0.000000 -0.000000 0.000000 
0.080136 87.026077 1.109630 -0.100406 -3.193530 -0.428496 0.299690 0.698993 -0.790177 -0.145384 1.057726 -0.389426 -0.151057 1.416932 1.701397 8.533271 0.605558 3.668033 -8.489801 -2.429342 -5.337188 -0.000000 0.000000 -0.000000 -4.505891 -11.404631 -12.659917 14.067901 -35.489530 -60.799475 -0.000007 -5.409098 -0.000028 -7.178811 5.362815 -3.534841 0.722085 5.242909 -19.058193 0.227592 1.618600 -16.006386 0.038562 0.671847 -6.570726 -0.000002 -0.000000 -0.000001 -2.869326 3.737410 9.040524 12.471324 25.897907 0.630183 -17.723817 -15.287258 3.805158 0.000001 -0.000000 -0.000001 -1.880576 1.059720 10.823121 24.752527 45.752108 53.218652 -0.000003 12.280307 0.000005 -2.537425 1.800772 5.615878 -6.843673 -4.635891 -19.349675 11.507958 -15.498242 5.713716 -16.634919 13.070990 -16.106660 0.000001 -0.000003 0.000002 1.030018 -6.398356 15.661912 0.131282 -1.099110 13.621759 0.025320 -0.485480 5.970513 -0.000004 -0.000001 0.000002 -13.069564 10.236349 2.734594 23.609601 -2.778609 -0.333851 -9.065353 5.985043 0.788731 -0.132656 0.000004 -0.000000 -0.000000 0.000000 -0.000000 -12.949193 0.371146 1.034067 21.222931 -3.098538 -0.518376 -7.135584 1.032428 0.175058 0.007508 0.000002 -0.000000 0.000000 0.000000 0.000000 
